<?xml version="1.0" encoding="UTF-8" standalone="no"?>
<svg width="24px" height="24px" viewBox="0 0 24 24" version="1.1" xmlns="http://www.w3.org/2000/svg" xmlns:xlink="http://www.w3.org/1999/xlink">
    <!-- Generator: Sketch 40.2 (33826) - http://www.bohemiancoding.com/sketch -->
    <title>Facebook-color</title>
    <desc>Created with Sketch.</desc>
    <defs></defs>
    <g id="Page-1" stroke="none" stroke-width="1" fill="none" fill-rule="evenodd">
        <g id="Home" transform="translate(-27.000000, -511.000000)" fill="#4460A0">
            <g id="Card-1" transform="translate(12.000000, 430.000000)">
                <g id="Social" transform="translate(15.000000, 77.000000)">
                    <path d="M12.8191776,28 L1.32461576,28 C0.592836328,28 1.77635684e-15,27.4067958 1.77635684e-15,26.6753014 L1.77635684e-15,5.32460548 C1.77635684e-15,4.59292485 0.592929454,4 1.32461576,4 L22.6754774,4 C23.4069774,4 24,4.59292485 24,5.32460548 L24,26.6753014 C24,27.4068889 23.4068843,28 22.6754774,28 L16.5596526,28 L16.5596526,18.7058773 L19.6792606,18.7058773 L20.1463776,15.0837928 L16.5596526,15.0837928 L16.5596526,12.7713207 C16.5596526,11.7226437 16.8508558,11.0080048 18.3546448,11.0080048 L20.2726557,11.0071667 L20.2726557,7.76754527 C19.940943,7.72340417 18.8023918,7.62478513 17.477776,7.62478513 C14.7124171,7.62478513 12.8191776,9.31276313 12.8191776,12.4126044 L12.8191776,15.0837928 L9.6915609,15.0837928 L9.6915609,18.7058773 L12.8191776,18.7058773 L12.8191776,28 L12.8191776,28 Z" id="Facebook"></path>
                </g>
            </g>
        </g>
    </g>
</svg>